<?xml version="1.0" encoding="UTF-8" standalone="no"?>
<svg
   xmlns:dc="http://purl.org/dc/elements/1.1/"
   xmlns:cc="http://creativecommons.org/ns#"
   xmlns:rdf="http://www.w3.org/1999/02/22-rdf-syntax-ns#"
   xmlns:svg="http://www.w3.org/2000/svg"
   xmlns="http://www.w3.org/2000/svg"
   xmlns:sodipodi="http://sodipodi.sourceforge.net/DTD/sodipodi-0.dtd"
   xmlns:inkscape="http://www.inkscape.org/namespaces/inkscape"
   width="100%"
   height="100%"
   viewBox="0 0 200 200"
   version="1.1"
   xml:space="preserve"
   style="fill-rule:evenodd;clip-rule:evenodd;stroke-linecap:round;stroke-linejoin:round;stroke-miterlimit:1.5;"
   id="svg48"
   sodipodi:docname="LEO_logo_v001.svg"
   inkscape:version="0.92.1 r15371"><metadata
     id="metadata54"><rdf:RDF><cc:Work
         rdf:about=""><dc:format>image/svg+xml</dc:format><dc:type
           rdf:resource="http://purl.org/dc/dcmitype/StillImage" /><dc:title></dc:title></cc:Work></rdf:RDF></metadata><defs
     id="defs52" /><sodipodi:namedview
     pagecolor="#ffffff"
     bordercolor="#666666"
     borderopacity="1"
     objecttolerance="10"
     gridtolerance="10"
     guidetolerance="10"
     inkscape:pageopacity="0"
     inkscape:pageshadow="2"
     inkscape:window-width="640"
     inkscape:window-height="480"
     id="namedview50"
     showgrid="false"
     inkscape:zoom="1.18"
     inkscape:cx="100"
     inkscape:cy="100"
     inkscape:window-x="0"
     inkscape:window-y="0"
     inkscape:window-maximized="0"
     inkscape:current-layer="svg48" /><rect
     x="0"
     y="0"
     width="200"
     height="200"
     style="fill:none;"
     id="rect44" /><path
     d="M7.41,73.521l0,-36.573c0,-1.544 0.613,-3.025 1.705,-4.116c1.091,-1.092 2.572,-1.705 4.116,-1.705l34.24,0c1.684,-0.001 3.294,0.692 4.452,1.915c3.95,4.251 6.149,10.127 5.203,15.956c-1.436,8.849 -5.801,16.581 -0.73,25.191c1.155,1.962 2.709,3.72 4.467,5.166c1.763,1.448 3.795,2.627 5.944,3.392c2.168,0.771 4.508,1.19 6.809,1.147c2.302,0.043 4.641,-0.376 6.81,-1.147c2.149,-0.765 4.181,-1.944 5.943,-3.392c1.759,-1.446 3.313,-3.204 4.468,-5.166c5.071,-8.61 0.706,-16.342 -0.73,-25.191c-0.946,-5.829 1.253,-11.705 5.229,-15.932c1.151,-1.216 2.751,-1.905 4.426,-1.905c6.469,-0.034 24.779,-0.034 34.24,-0.034c1.544,0 3.025,0.613 4.116,1.705c1.092,1.091 1.705,2.572 1.705,4.116l0,34.325c0,1.563 0.628,3.06 1.744,4.154c1.149,1.164 2.592,2.582 3.577,3.254c3.617,2.466 8.095,3.762 12.47,3.61c4.903,-0.171 8.614,-2.503 13.527,-2.636c11.211,-0.301 21.24,9.119 21.449,20.345c-0.209,11.226 -10.238,20.646 -21.449,20.345c-4.913,-0.133 -8.624,-2.465 -13.527,-2.636c-4.375,-0.152 -8.853,1.144 -12.47,3.61c-0.985,0.672 -2.428,2.09 -3.563,3.269c-1.112,1.09 -1.738,2.582 -1.738,4.139c-0.02,6.391 -0.02,24.822 -0.02,34.325c0,1.544 -0.613,3.025 -1.705,4.116c-1.091,1.092 -2.572,1.705 -4.116,1.705l-34.24,0c-1.684,0.001 -3.294,-0.692 -4.452,-1.915c-3.95,-4.251 -6.149,-10.127 -5.203,-15.956c1.436,-8.849 5.801,-16.581 0.73,-25.191c-1.155,-1.962 -2.709,-3.72 -4.468,-5.166c-1.762,-1.448 -3.794,-2.627 -5.943,-3.392c-2.169,-0.771 -4.508,-1.19 -6.81,-1.147c-2.301,-0.043 -4.641,0.376 -6.809,1.147c-2.149,0.765 -4.181,1.944 -5.944,3.392c-1.758,1.446 -3.312,3.204 -4.467,5.166c-5.071,8.61 -0.706,16.342 0.73,25.191c0.946,5.829 -1.253,11.705 -5.229,15.932c-1.151,1.216 -2.752,1.905 -4.426,1.905c-6.469,0.034 -24.779,0.034 -34.24,0.034c-1.544,0 -3.025,-0.613 -4.116,-1.705c-1.092,-1.091 -1.705,-2.572 -1.705,-4.116l0,-36.573l0,-52.958Z"
     style="fill:#1579c8;stroke:#0c5086;stroke-width:6.25px;"
     id="path46" /></svg>